<svg preserveAspectRatio="none" width="100%" height="100%" overflow="visible" style="display: block;" viewBox="0 0 50 50" fill="none" xmlns="http://www.w3.org/2000/svg">
<g id="supplement_5845531 1">
<path id="Vector" d="M44.2708 25.7812H42.1882L42.2221 24.9675H42.9362C43.1434 24.9675 43.3422 24.8852 43.4887 24.7387C43.6352 24.5921 43.7175 24.3934 43.7175 24.1862V21.6146C43.7175 20.349 43.0144 19.5312 41.9271 19.5312H38.2813V14.8438C38.2798 13.601 37.7855 12.4095 36.9067 11.5308C36.028 10.652 34.8365 10.1577 33.5938 10.1562H30.4688V8.59375H32.0313C32.2385 8.59375 32.4372 8.51144 32.5837 8.36493C32.7302 8.21841 32.8125 8.0197 32.8125 7.8125V3.51562C32.8117 2.79068 32.5233 2.09566 32.0107 1.58304C31.4981 1.07043 30.8031 0.782077 30.0781 0.78125H16.7969C16.0719 0.782077 15.3769 1.07043 14.8643 1.58304C14.3517 2.09566 14.0633 2.79068 14.0625 3.51562V7.8125C14.0625 8.0197 14.1448 8.21841 14.2913 8.36493C14.4378 8.51144 14.6366 8.59375 14.8438 8.59375H16.4063V10.1562H13.2813C12.0385 10.1577 10.847 10.652 9.96826 11.5308C9.08949 12.4095 8.59517 13.601 8.59375 14.8438V33.5863H5.77695C5.28503 33.5869 4.81341 33.7826 4.46557 34.1304C4.11772 34.4783 3.92205 34.9499 3.92148 35.4418V36.7113C3.92148 36.9185 4.00379 37.1172 4.15031 37.2638C4.29682 37.4103 4.49553 37.4926 4.70273 37.4926H5.48398V38.2738H5.09336C4.57554 38.2744 4.0791 38.4804 3.71295 38.8465C3.34679 39.2127 3.14083 39.7091 3.14023 40.227V47.2582C3.14083 47.776 3.34679 48.2725 3.71295 48.6386C4.0791 49.0048 4.57554 49.2107 5.09336 49.2113L30.7292 49.2188H44.2708C45.1684 49.2177 46.0289 48.8607 46.6635 48.226C47.2982 47.5914 47.6552 46.7309 47.6563 45.8333V29.1667C47.6552 28.2691 47.2982 27.4086 46.6635 26.774C46.0289 26.1393 45.1684 25.7823 44.2708 25.7812ZM44.2708 27.3438C44.7541 27.3443 45.2175 27.5365 45.5592 27.8783C45.901 28.22 46.0932 28.6834 46.0938 29.1667V30.4688H28.9063V29.1667C28.9068 28.6834 29.099 28.22 29.4408 27.8783C29.7825 27.5365 30.2459 27.3443 30.7292 27.3438H33.5286C33.7302 27.3437 33.924 27.2658 34.0694 27.1263C34.2149 26.9868 34.3008 26.7964 34.3092 26.595L34.3757 25H40.6569L40.5932 26.53C40.5888 26.6352 40.6057 26.7403 40.643 26.8388C40.6802 26.9373 40.737 27.0273 40.8099 27.1033C40.8828 27.1793 40.9704 27.2398 41.0673 27.2811C41.1642 27.3224 41.2684 27.3437 41.3737 27.3438H44.2708ZM46.0938 42.9688H28.9063V32.0312H46.0938V42.9688ZM4.70273 42.1801H12.5V42.1875C12.5 42.239 12.5051 42.2904 12.5152 42.3409V45.3051H4.70273V42.1801ZM14.0777 47.2582V42.9688H27.3438V45.8333C27.3432 46.4797 27.529 47.1126 27.8787 47.6562H14.0367C14.064 47.5253 14.0777 47.3919 14.0777 47.2582ZM42.155 21.6146V23.405H32.845V21.6146C32.8452 21.4765 32.9001 21.3441 32.9978 21.2465C33.0954 21.1488 33.2278 21.0939 33.3659 21.0938H41.9271C42.0066 21.0938 42.155 21.0937 42.155 21.6146ZM15.625 3.51562C15.6253 3.20493 15.7489 2.90705 15.9686 2.68736C16.1883 2.46766 16.4862 2.34409 16.7969 2.34375H30.0781C30.3888 2.34409 30.6867 2.46766 30.9064 2.68736C31.1261 2.90705 31.2497 3.20493 31.25 3.51562V7.03125H15.625V3.51562ZM13.2813 11.7188H17.1875C17.3947 11.7188 17.5934 11.6364 17.7399 11.4899C17.8864 11.3434 17.9688 11.1447 17.9688 10.9375V8.59375H28.9063V10.9375C28.9063 11.1447 28.9886 11.3434 29.1351 11.4899C29.2816 11.6364 29.4803 11.7188 29.6875 11.7188H33.5938C34.4223 11.7197 35.2166 12.0492 35.8024 12.6351C36.3883 13.2209 36.7178 14.0152 36.7188 14.8438V16.4062H10.1563V14.8438C10.1572 14.0152 10.4867 13.2209 11.0726 12.6351C11.6584 12.0492 12.4527 11.7197 13.2813 11.7188ZM10.1563 17.9688H36.7188V19.5312H33.3659C32.8136 19.5318 32.284 19.7515 31.8934 20.1421C31.5028 20.5326 31.2831 21.0622 31.2825 21.6146V24.1862C31.2825 24.3934 31.3648 24.5921 31.5113 24.7387C31.6579 24.8852 31.8566 24.9675 32.0638 24.9675H32.8131L32.7792 25.7812H30.7292C29.8316 25.7823 28.9711 26.1393 28.3365 26.774C27.7018 27.4086 27.3448 28.2691 27.3438 29.1667V41.4062H14.0777V40.227C14.0772 39.7091 13.8712 39.2127 13.5051 38.8465C13.1389 38.4804 12.6424 38.2744 12.1246 38.2738H11.734V37.4926H12.5152C12.7224 37.4926 12.9211 37.4103 13.0677 37.2638C13.2142 37.1172 13.2965 36.9185 13.2965 36.7113V35.4418C13.2959 34.9499 13.1003 34.4782 12.7524 34.1304C12.4046 33.7825 11.933 33.5869 11.441 33.5863H10.1563V17.9688ZM5.48398 35.4418C5.48398 35.3641 5.51485 35.2896 5.56979 35.2346C5.62474 35.1797 5.69925 35.1488 5.77695 35.1488H11.441C11.5187 35.1488 11.5932 35.1797 11.6482 35.2346C11.7031 35.2896 11.734 35.3641 11.734 35.4418V35.9301H5.48398V35.4418ZM7.04648 37.4926H10.1715V38.2738H7.04648V37.4926ZM5.09336 39.8363H12.1246C12.2282 39.8363 12.3276 39.8775 12.4008 39.9507C12.4741 40.024 12.5152 40.1234 12.5152 40.227V40.6176H4.70273V40.227C4.70273 40.1234 4.74389 40.024 4.81715 39.9507C4.8904 39.8775 4.98976 39.8363 5.09336 39.8363ZM4.70273 47.2582V46.8676H12.5152V47.2582C12.5152 47.3618 12.4741 47.4612 12.4008 47.5344C12.3276 47.6077 12.2282 47.6488 12.1246 47.6488H5.09336C4.98976 47.6488 4.8904 47.6077 4.81715 47.5344C4.74389 47.4612 4.70273 47.3618 4.70273 47.2582ZM44.2708 47.6562H30.7292C30.2459 47.6557 29.7825 47.4635 29.4408 47.1217C29.099 46.78 28.9068 46.3166 28.9063 45.8333V44.5312H46.0938V45.8333C46.0932 46.3166 45.901 46.78 45.5592 47.1217C45.2175 47.4635 44.7541 47.6557 44.2708 47.6562Z" fill="var(--fill-0, #116190)"/>
</g>
</svg>
