<svg preserveAspectRatio="none" width="100%" height="100%" overflow="visible" style="display: block;" viewBox="0 0 45.5391 37.6875" fill="none" xmlns="http://www.w3.org/2000/svg">
<g id="Group 1000004456">
<path id="Vector" d="M2.05449 9.45106C1.41792 9.93091 0.901158 10.5517 0.544709 11.2647C0.18826 11.9778 0.0018176 12.7637 0 13.5608V30.6755C0.00145472 31.9795 0.52009 33.2296 1.44212 34.1516C2.36415 35.0737 3.61427 35.5923 4.91822 35.5938H16.0193C17.3232 35.5923 18.5734 35.0737 19.4954 34.1516C20.4174 33.2296 20.936 31.9795 20.9375 30.6755V13.5608C20.9357 12.7637 20.7492 11.9778 20.3928 11.2647C20.0363 10.5517 19.5196 9.93091 18.883 9.45106L16.75 7.85156V6.28125H17.7969C18.0745 6.28125 18.3408 6.17096 18.5371 5.97463C18.7335 5.7783 18.8438 5.51202 18.8438 5.23438V1.04688C18.8438 0.769226 18.7335 0.502949 18.5371 0.306622C18.3408 0.110295 18.0745 0 17.7969 0H3.14062C2.86298 0 2.5967 0.110295 2.40037 0.306622C2.20405 0.502949 2.09375 0.769226 2.09375 1.04688V5.23438C2.09375 5.51202 2.20405 5.7783 2.40037 5.97463C2.5967 6.17096 2.86298 6.28125 3.14062 6.28125H4.1875V7.85156L2.05449 9.45106ZM16.0193 33.5H4.91822C4.16939 33.4991 3.45148 33.2013 2.92197 32.6718C2.39247 32.1423 2.09462 31.4244 2.09375 30.6755V28.2656H18.8438V30.6755C18.8429 31.4244 18.545 32.1423 18.0155 32.6718C17.486 33.2013 16.7681 33.4991 16.0193 33.5ZM10.4688 6.28125V4.1875H4.1875V2.09375H16.75V4.1875H12.5625V6.28125H14.6562V8.375C14.6562 8.53752 14.6941 8.69781 14.7668 8.84318C14.8395 8.98854 14.945 9.11499 15.075 9.2125L17.6268 11.1261C18.0038 11.4104 18.3099 11.7782 18.5211 12.2006C18.7322 12.623 18.8427 13.0886 18.8438 13.5608V26.1719H2.09375V17.7969H16.75V15.7031H2.09375V13.5608C2.09483 13.0886 2.20527 12.623 2.41641 12.2006C2.62756 11.7782 2.93366 11.4104 3.31074 11.1261L5.8625 9.2125C5.99252 9.11499 6.09805 8.98854 6.17073 8.84318C6.24341 8.69781 6.28125 8.53752 6.28125 8.375V6.28125H10.4688Z" fill="var(--fill-0, #116190)"/>
<path id="Vector_2" d="M24.557 12.2823C24.0718 12.7658 23.6871 13.3408 23.4252 13.9743C23.1633 14.6077 23.0294 15.2868 23.0313 15.9724V33.2737C23.0326 34.4439 23.4972 35.5658 24.3232 36.3933C25.1492 37.2208 26.2691 37.6862 27.4372 37.6875H41.1331C42.3013 37.6862 43.4212 37.2208 44.2471 36.3933C45.0731 35.5658 45.5377 34.4439 45.539 33.2737V15.9724C45.5409 15.2868 45.407 14.6076 45.1451 13.9742C44.8832 13.3407 44.4985 12.7656 44.0132 12.2822L41.7877 10.0528V8.5629H43.6634C43.9121 8.5629 44.1507 8.46392 44.3265 8.28773C44.5024 8.11154 44.6012 7.87257 44.6012 7.6234V1.98638C44.6012 1.73721 44.5024 1.49824 44.3265 1.32205C44.1507 1.14586 43.9121 1.04688 43.6634 1.04688H24.9069C24.6582 1.04688 24.4197 1.14586 24.2438 1.32205C24.0679 1.49824 23.9691 1.73721 23.9691 1.98638V7.6234C23.9691 7.87257 24.0679 8.11154 24.2438 8.28773C24.4197 8.46392 24.6582 8.5629 24.9069 8.5629H26.7826V10.0528L24.557 12.2823ZM30.5339 8.5629V6.68389H25.8447V2.92588H42.7256V6.68389H32.4095V8.5629H39.9121V10.4419C39.9121 10.5653 39.9363 10.6875 39.9835 10.8014C40.0306 10.9154 40.0997 11.019 40.1868 11.1063L42.6869 13.6107C42.9974 13.9202 43.2437 14.2882 43.4113 14.6936C43.5789 15.099 43.6646 15.5336 43.6634 15.9724V29.232H29.596V31.111H43.6634V33.2737C43.6626 33.9457 43.3958 34.59 42.9214 35.0652C42.4471 35.5404 41.804 35.8077 41.1331 35.8085H27.4372C26.7663 35.8077 26.1232 35.5404 25.6489 35.0652C25.1745 34.59 24.9077 33.9457 24.9069 33.2737V31.111H27.7204V29.232H24.9069V19.8369H41.7877V17.9579H24.9069V15.9724C24.9057 15.5337 24.9914 15.099 25.159 14.6937C25.3266 14.2883 25.5728 13.9203 25.8833 13.6109L28.3835 11.1063C28.4706 11.019 28.5397 10.9154 28.5868 10.8014C28.634 10.6875 28.6582 10.5653 28.6582 10.4419V8.5629H30.5339Z" fill="var(--fill-0, #116190)"/>
</g>
</svg>
