<svg preserveAspectRatio="none" width="100%" height="100%" overflow="visible" style="display: block;" viewBox="0 0 24 24" fill="none" xmlns="http://www.w3.org/2000/svg">
<g id="fi_6737614" clip-path="url(#clip0_6005_372)">
<path id="Vector" d="M6.40252 15.0987H20.0885C20.9957 15.0987 21.7794 14.4831 21.9943 13.6017L23.9864 5.42827C24.0273 5.26055 23.9889 5.08336 23.8822 4.94756C23.7756 4.81181 23.6125 4.73255 23.4398 4.73255H5.10244L4.31067 1.40766C4.25034 1.15425 4.02394 0.975469 3.76345 0.975469H1.40864C1.098 0.975469 0.846141 1.22733 0.846141 1.53797C0.846141 1.84861 1.098 2.10047 1.40864 2.10047H3.31922L3.94598 4.73259H0.560109C0.249422 4.73259 -0.00239062 4.98445 -0.00239062 5.29509C-0.00239062 5.60573 0.249422 5.85759 0.560109 5.85759H22.7238L20.9012 13.3352C20.8081 13.7171 20.4815 13.9737 20.0885 13.9737H6.40252C5.20439 13.9737 4.22967 14.9484 4.22967 16.1465C4.22967 17.3447 5.20439 18.3194 6.40252 18.3194H6.606C5.72686 18.6914 5.10844 19.5627 5.10844 20.5758C5.10844 21.926 6.20695 23.0245 7.55714 23.0245C8.90733 23.0245 10.0058 21.926 10.0058 20.5758C10.0058 19.5627 9.38742 18.6914 8.50828 18.3194H19.2908C18.4116 18.6914 17.7932 19.5627 17.7932 20.5758C17.7932 21.926 18.8917 23.0245 20.2419 23.0245C21.5921 23.0245 22.6906 21.926 22.6906 20.5758C22.6906 19.5627 22.0722 18.6914 21.193 18.3194H21.9971C22.3078 18.3194 22.5596 18.0675 22.5596 17.7569C22.5596 17.4463 22.3078 17.1944 21.9971 17.1944H6.40252C5.82473 17.1944 5.35467 16.7243 5.35467 16.1465C5.35467 15.5688 5.82473 15.0987 6.40252 15.0987ZM7.55719 21.8995C6.8273 21.8995 6.23348 21.3057 6.23348 20.5758C6.23348 19.8459 6.8273 19.2521 7.55719 19.2521C8.28703 19.2521 8.88084 19.8459 8.88084 20.5758C8.88084 21.3057 8.28703 21.8995 7.55719 21.8995ZM20.2419 21.8995C19.512 21.8995 18.9182 21.3057 18.9182 20.5758C18.9182 19.8459 19.512 19.2521 20.2419 19.2521C20.9718 19.2521 21.5656 19.8459 21.5656 20.5758C21.5656 21.3057 20.9718 21.8995 20.2419 21.8995ZM4.00125 8.93794C3.69061 8.93794 3.43875 8.68608 3.43875 8.37544C3.43875 8.0648 3.69061 7.81294 4.00125 7.81294H10.8718C11.1825 7.81294 11.4343 8.0648 11.4343 8.37544C11.4343 8.68608 11.1825 8.93794 10.8718 8.93794H4.00125ZM7.75636 12.0183H0.945375C0.634734 12.0183 0.382875 11.7665 0.382875 11.4558C0.382875 11.1452 0.634734 10.8933 0.945375 10.8933H7.75636C8.067 10.8933 8.31886 11.1452 8.31886 11.4558C8.31886 11.7665 8.067 12.0183 7.75636 12.0183Z" fill="var(--fill-0, #106091)"/>
</g>
<defs>
<clipPath id="clip0_6005_372">
<rect width="24" height="24" fill="white"/>
</clipPath>
</defs>
</svg>
