<svg preserveAspectRatio="none" width="100%" height="100%" overflow="visible" style="display: block;" viewBox="0 0 68 68" fill="none" xmlns="http://www.w3.org/2000/svg">
<g id="123 1">
<path id="Vector" d="M36.9693 29.3171V13.6408L23.392 5.80267L9.81467 13.6408V29.3171L23.392 37.1552L36.9693 29.3171Z" stroke="var(--stroke-0, #116190)" stroke-width="2" stroke-linecap="round" stroke-linejoin="round"/>
<path id="Vector_2" d="M58.6704 35.7227L50.8323 22.1453H36.9693" stroke="var(--stroke-0, #116190)" stroke-width="2" stroke-linecap="round" stroke-linejoin="round"/>
<path id="Vector_3" d="M14.7061 26.7013L23.392 31.7152L32.0779 26.7013" stroke="var(--stroke-0, #116190)" stroke-width="2" stroke-linecap="round" stroke-linejoin="round"/>
<path id="Vector_4" d="M32.0779 16.6736L23.392 11.6552L14.7061 16.6736" stroke="var(--stroke-0, #116190)" stroke-width="2" stroke-linecap="round" stroke-linejoin="round"/>
<path id="Vector_5" d="M50.8323 24.2171C51.9764 24.2171 52.904 23.2895 52.904 22.1453C52.904 21.0011 51.9764 20.0736 50.8323 20.0736C49.6881 20.0736 48.7605 21.0011 48.7605 22.1453C48.7605 23.2895 49.6881 24.2171 50.8323 24.2171Z" fill="var(--fill-0, #116190)"/>
<path id="Vector_6" d="M57.1381 37.7944C59.1286 37.7944 60.7421 36.1808 60.7421 34.1904C60.7421 32.2 59.1286 30.5864 57.1381 30.5864C55.1477 30.5864 53.5341 32.2 53.5341 34.1904C53.5341 36.1808 55.1477 37.7944 57.1381 37.7944Z" fill="var(--fill-0, #116190)"/>
<path id="Vector_7" d="M10.8619 62.1973C12.8523 62.1973 14.4659 60.5838 14.4659 58.5933C14.4659 56.6029 12.8523 54.9893 10.8619 54.9893C8.87143 54.9893 7.25787 56.6029 7.25787 58.5933C7.25787 60.5838 8.87143 62.1973 10.8619 62.1973Z" fill="var(--fill-0, #116190)"/>
<path id="Vector_8" d="M9.81467 59.3141L23.392 51.476V37.1552" stroke="var(--stroke-0, #116190)" stroke-width="2" stroke-linecap="round" stroke-linejoin="round"/>
<path id="Vector_9" d="M23.392 53.5477C24.5362 53.5477 25.4637 52.6202 25.4637 51.476C25.4637 50.3318 24.5362 49.4043 23.392 49.4043C22.2478 49.4043 21.3203 50.3318 21.3203 51.476C21.3203 52.6202 22.2478 53.5477 23.392 53.5477Z" fill="var(--fill-0, #116190)"/>
</g>
</svg>
