<svg preserveAspectRatio="none" width="100%" height="100%" overflow="visible" style="display: block;" viewBox="0 0 40.6358 49.1689" fill="none" xmlns="http://www.w3.org/2000/svg">
<g id="XMLID_3446_">
<path id="XMLID_14_" d="M26.6496 10.1389H17.0925C16.5011 10.1389 16.0211 9.65893 16.0211 9.0675C16.0211 8.47607 16.5011 7.99607 17.0925 7.99607H26.6496C26.6925 7.99607 26.7268 7.96179 26.7268 7.91893V2.22C26.7268 2.17714 26.6925 2.14286 26.6496 2.14286H5.33036C5.2875 2.14286 5.25321 2.17714 5.25321 2.22V7.91786C5.25321 7.96072 5.2875 7.995 5.33036 7.995H10.0071C10.5986 7.995 11.0786 8.475 11.0786 9.06643C11.0786 9.65786 10.5986 10.1379 10.0071 10.1379H5.33036C4.10571 10.1379 3.11036 9.14143 3.11036 7.91786V2.22C3.11036 0.995357 4.10679 1.49012e-07 5.33036 1.49012e-07H26.6496C27.8743 1.49012e-07 28.8696 0.996429 28.8696 2.22V7.91786C28.8696 9.1425 27.8743 10.1389 26.6496 10.1389Z" fill="var(--fill-0, #116190)"/>
<path id="XMLID_13_" d="M10.2954 48.8839H4.72607C2.12036 48.8839 1.19209e-07 46.7636 1.19209e-07 44.1579V16.1196C1.19209e-07 13.5139 2.12036 11.3936 4.72607 11.3936H5.82429V10.1389C5.82429 9.5475 6.30429 9.0675 6.89571 9.0675C7.48714 9.0675 7.96714 9.5475 7.96714 10.1389V12.465C7.96714 13.0564 7.48714 13.5364 6.89571 13.5364H4.72607C3.30107 13.5364 2.14286 14.6957 2.14286 16.1196V44.1579C2.14286 45.5818 3.30214 46.7411 4.72607 46.7411H10.2954C10.8868 46.7411 11.3668 47.22 11.3668 47.8125C11.3668 48.405 10.8868 48.8839 10.2954 48.8839Z" fill="var(--fill-0, #116190)"/>
<path id="XMLID_12_" d="M30.9107 30.6557C30.3182 30.6557 29.8393 30.1768 29.8393 29.5843V16.1196C29.8393 14.6946 28.68 13.5364 27.2561 13.5364H25.0864C24.4939 13.5364 24.015 13.0564 24.015 12.465V10.1389C24.015 9.5475 24.4939 9.0675 25.0864 9.0675C25.6789 9.0675 26.1579 9.5475 26.1579 10.1389V11.3936H27.2561C29.8629 11.3936 31.9821 13.5139 31.9821 16.1196V29.5843C31.9821 30.1768 31.5021 30.6557 30.9107 30.6557Z" fill="var(--fill-0, #116190)"/>
<path id="XMLID_11_" d="M1.07036 19.6468H30.9107V21.7896H1.07036V19.6468Z" fill="var(--fill-0, #116190)"/>
<path id="XMLID_10_" d="M10.1657 40.5536H2.14179C1.55036 40.5536 1.07036 40.0746 1.07036 39.4821C1.07036 38.8896 1.55036 38.4107 2.14179 38.4107H10.1657C10.7571 38.4107 11.2371 38.8896 11.2371 39.4821C11.2371 40.0746 10.7571 40.5536 10.1657 40.5536Z" fill="var(--fill-0, #116190)"/>
<path id="XMLID_5_" d="M26.8532 49.1689H17.1364C14.3304 49.1689 12.0471 46.8857 12.0471 44.0796C12.0471 41.2736 14.3304 38.9904 17.1364 38.9904H26.8532C29.6593 38.9904 31.9425 41.2736 31.9425 44.0796C31.9425 46.8857 29.6593 49.1689 26.8532 49.1689ZM17.1354 41.1332C15.5111 41.1332 14.1889 42.4543 14.1889 44.0796C14.1889 45.705 15.5111 47.0261 17.1354 47.0261H26.8521C28.4775 47.0261 29.7986 45.705 29.7986 44.0796C29.7986 42.4543 28.4775 41.1332 26.8521 41.1332H17.1354Z" fill="var(--fill-0, #116190)"/>
<path id="XMLID_4_" d="M20.9218 40.0618H23.0646V48.0975H20.9218V40.0618Z" fill="var(--fill-0, #116190)"/>
<path id="XMLID_3_" d="M35.535 49.1636C34.7111 49.1636 33.885 48.9654 33.1329 48.5604C32.6121 48.2797 32.4171 47.6304 32.6989 47.1096C32.9796 46.5889 33.6321 46.3929 34.1496 46.6757C35.2864 47.2875 36.7168 47.0796 37.6318 46.1646C38.7804 45.0161 38.7804 43.1464 37.6318 41.9968L30.7618 35.1257C29.6132 33.9793 27.7436 33.9804 26.5939 35.1257C25.4464 36.2743 25.4464 38.1439 26.5939 39.2936C27.0129 39.7125 27.0129 40.3907 26.5939 40.8086C26.175 41.2275 25.4979 41.2275 25.0789 40.8086C23.0946 38.8232 23.0946 35.5961 25.0789 33.6107C27.0632 31.6286 30.2925 31.6264 32.2768 33.6107L39.1468 40.4818C41.1321 42.4672 41.1321 45.6943 39.1468 47.6797C38.1739 48.6525 36.8593 49.1625 35.535 49.1636Z" fill="var(--fill-0, #116190)"/>
<path id="XMLID_2_" d="M34.1972 37.0378L35.7124 38.5531L31.3933 42.8722L29.8781 41.357L34.1972 37.0378Z" fill="var(--fill-0, #116190)"/>
</g>
</svg>
