<svg preserveAspectRatio="none" width="100%" height="100%" overflow="visible" style="display: block;" viewBox="0 0 58 58" fill="none" xmlns="http://www.w3.org/2000/svg">
<g id="inject_15598631 1">
<path id="Vector" d="M19.2451 52.5137H38.5977C40.938 52.5137 42.8423 50.6094 42.8423 48.269V24.312C42.8423 23.0332 42.2749 21.8359 41.2856 21.0269L37.0249 17.5405C36.874 17.4175 36.7876 17.2344 36.7876 17.0391V15.6914H37.2964C38.4873 15.6914 39.4565 14.7222 39.4565 13.5312V7.16064C39.4565 5.96924 38.4873 5 37.2964 5H20.5464C19.3555 5 18.3862 5.96924 18.3862 7.16064V13.5312C18.3862 14.7222 19.3555 15.6914 20.5464 15.6914H21.0552V17.0391C21.0552 17.2344 20.9683 17.4175 20.8174 17.541L16.5571 21.0269C15.5679 21.8359 15 23.0337 15 24.312V48.269C15 50.6094 16.9043 52.5137 19.2451 52.5137ZM40.8423 43.1689H25.7295V27.6362H40.8423V43.1689ZM20.3862 13.5312V7.16064C20.3862 7.07227 20.458 7 20.5464 7H37.2964C37.3848 7 37.4565 7.07227 37.4565 7.16064V13.5312C37.4565 13.6196 37.3848 13.6914 37.2964 13.6914H20.5464C20.458 13.6914 20.3862 13.6196 20.3862 13.5312ZM17 24.312C17 23.6362 17.3003 23.0029 17.8237 22.5747L22.084 19.0889C22.7012 18.5835 23.0552 17.8364 23.0552 17.0391V15.6914H34.7876V17.0391C34.7876 17.8369 35.1416 18.5845 35.7588 19.0889L40.019 22.5747C40.5425 23.0024 40.8423 23.6357 40.8423 24.312V25.6362H24.7295C24.1772 25.6362 23.7295 26.084 23.7295 26.6362V44.1689C23.7295 44.7212 24.1772 45.1689 24.7295 45.1689H40.8423V48.269C40.8423 49.5068 39.8354 50.5137 38.5977 50.5137H19.2451C18.0073 50.5137 17 49.5068 17 48.269V24.312Z" fill="var(--fill-0, #116190)"/>
</g>
</svg>
