<svg preserveAspectRatio="none" width="100%" height="100%" overflow="visible" style="display: block;" viewBox="0 0 52.7541 58.1251" fill="none" xmlns="http://www.w3.org/2000/svg">
<path id="Vector" d="M18.5944 21.9134C17.378 22.2392 16.4467 23.2508 16.2216 24.4904C16.1394 24.9431 15.7447 25.2605 15.3002 25.2605C15.2447 25.2605 15.1883 25.2555 15.1317 25.2452C14.6223 25.1528 14.2843 24.6648 14.3769 24.1553C14.7309 22.2057 16.1959 20.6148 18.1092 20.1021C19.8503 19.6358 21.6718 20.0978 22.982 21.3384C23.3579 21.6944 23.3741 22.2879 23.0181 22.6638C22.662 23.04 22.0685 23.0559 21.6927 22.6999C20.8591 21.9107 19.7005 21.6165 18.5944 21.9134ZM49.0973 15.6558C46.7754 11.7288 43.4578 8.45179 39.5034 6.17894C39.0544 5.92089 38.4814 6.07558 38.2235 6.52452C37.9655 6.97335 38.1202 7.54652 38.5691 7.80445C46.1621 12.1689 50.8791 20.3146 50.8791 29.0627C50.8791 42.5732 39.8875 53.5648 26.377 53.5648C25.4521 53.5648 24.5239 53.5112 23.6033 53.4073L25.4865 52.2278C25.9254 51.9528 26.0583 51.3744 25.7835 50.9357C25.5088 50.497 24.9301 50.364 24.4914 50.6387L20.5147 53.1292C20.2705 53.2822 20.1102 53.539 20.08 53.8255C20.0497 54.1121 20.1531 54.3967 20.3603 54.5972L23.7312 57.8611C23.9132 58.0375 24.1484 58.1251 24.3831 58.1251C24.6281 58.1251 24.8728 58.0297 25.0567 57.8396C25.4168 57.4677 25.4073 56.8742 25.0352 56.514L23.794 55.3121C24.6526 55.3959 25.5161 55.4396 26.377 55.4396C33.4226 55.4396 40.0465 52.6959 45.0284 47.7139C50.0102 42.7319 52.7541 36.1082 52.7541 29.0626C52.7541 24.3375 51.4896 19.7014 49.0973 15.6558ZM14.1847 50.3209C6.5918 45.9568 1.875 37.8111 1.875 29.0627C1.875 15.5523 12.8666 4.56069 26.377 4.56069C27.304 4.56069 28.2325 4.61331 29.1524 4.71691L27.2674 5.89734C26.8287 6.17226 26.6957 6.75069 26.9705 7.18944C27.1485 7.47362 27.4536 7.62948 27.7659 7.62948C27.9359 7.62948 28.1079 7.58319 28.2626 7.4864L32.2393 4.99593C32.4836 4.84288 32.6439 4.58612 32.6741 4.2996C32.7043 4.01296 32.601 3.72831 32.3938 3.52792L29.0228 0.264015C28.6507 -0.0962193 28.0572 -0.0866099 27.6972 0.28546C27.337 0.657414 27.3465 1.25085 27.7186 1.61109L28.9596 2.81261C28.1021 2.72917 27.2389 2.68569 26.377 2.68569C19.3315 2.68569 12.7076 5.42941 7.7257 10.4114C2.74383 15.3934 0 22.0172 0 29.0627C0 33.788 1.26445 38.424 3.6566 42.4696C5.97855 46.3966 9.29601 49.6738 13.2504 51.9464C13.3976 52.0311 13.5582 52.0712 13.7167 52.0712C14.0414 52.0712 14.357 51.9025 14.5303 51.6007C14.7884 51.152 14.6337 50.5788 14.1847 50.3209ZM23.0551 48.7501C21.0128 48.7501 19.2013 47.5646 18.3736 45.7439C16.6744 45.4335 15.2291 44.2691 14.5536 42.6852C13.3168 42.7712 12.0873 42.4071 11.0768 41.6355C10.0164 40.8259 9.32414 39.6617 9.11695 38.3714C7.16215 37.6173 5.80371 35.695 5.80371 33.5657C5.80371 31.6951 6.75023 30.0422 8.18801 29.0626C6.75023 28.083 5.80371 26.4302 5.80371 24.5596C5.80371 22.4301 7.16215 20.5078 9.11695 19.7538C9.32414 18.4632 10.0164 17.2993 11.0768 16.4897C12.0872 15.7181 13.3168 15.3534 14.5536 15.44C15.2291 13.8561 16.6744 12.6919 18.3736 12.3813C19.2014 10.5606 21.0129 9.37511 23.0551 9.37511C24.296 9.37511 25.4355 9.81667 26.3252 10.5509V10.3126C26.3252 9.79487 26.745 9.37511 27.2627 9.37511H29.8002C30.1881 9.37511 30.5358 9.61394 30.6751 9.97581L31.6969 12.6302C33.1133 13.0118 34.4711 13.5746 35.7448 14.3085L38.3462 13.1531C38.7007 12.9959 39.1153 13.0728 39.3896 13.3469L42.9783 16.9356C43.2525 17.2099 43.3295 17.6246 43.1721 17.979L42.0171 20.5793C42.7511 21.853 43.3141 23.2112 43.6957 24.6285L46.3495 25.65C46.7114 25.7892 46.9502 26.137 46.9502 26.5249V31.6001C46.9502 31.988 46.7114 32.3357 46.3495 32.475L43.695 33.4967C43.3137 34.913 42.7507 36.2707 42.0168 37.5445L43.1722 40.1461C43.3296 40.5005 43.2526 40.9152 42.9784 41.1895L39.3898 44.7782C39.1154 45.0525 38.7005 45.1295 38.3463 44.972L35.7459 43.817C34.4726 44.5508 33.1145 45.1138 31.6969 45.4956L30.6754 48.1494C30.5361 48.5113 30.1883 48.7501 29.8004 48.7501H27.2629C26.7451 48.7501 26.3254 48.3303 26.3254 47.8126V47.5744C25.4357 48.3085 24.296 48.7501 23.0551 48.7501ZM26.0108 29.0626C27.3337 29.9946 28.2005 31.5327 28.2005 33.2702V36.9184C32.1233 36.4529 35.1761 33.1086 35.1761 29.0626C35.1761 25.0166 32.1232 21.6723 28.2005 21.2068V24.855C28.2005 26.5925 27.3337 28.1306 26.0108 29.0626ZM28.2004 11.2501L28.2005 19.3202C33.1594 19.7939 37.0511 23.9816 37.0511 29.0626C37.0511 34.1436 33.1594 38.3313 28.2005 38.805L28.2004 46.8751H29.1567L30.1212 44.3694C30.2321 44.081 30.4782 43.8657 30.7789 43.7942C32.3391 43.4229 33.8236 42.8074 35.1913 41.9651C35.4547 41.8029 35.7811 41.7811 36.0634 41.9065L38.5189 42.9973L41.1971 40.3191L40.106 37.8623C39.9806 37.5798 40.0024 37.2535 40.1645 36.9903C41.0072 35.6217 41.6225 34.1375 41.9932 32.5792C42.0648 32.2785 42.28 32.0323 42.5685 31.9213L45.075 30.9566V27.169L42.5693 26.2045C42.2808 26.0935 42.0656 25.8473 41.9941 25.5466C41.6229 23.9869 41.0075 22.5023 40.165 21.1344C40.0028 20.8711 39.981 20.5448 40.1064 20.2623L41.1971 17.8067L38.5189 15.1285L36.0623 16.2197C35.7799 16.3451 35.4536 16.3234 35.1904 16.1612C33.822 15.3186 32.3378 14.7033 30.7789 14.3323C30.4784 14.2608 30.2321 14.0455 30.1212 13.7571L29.1566 11.2501H28.2004ZM11.2294 28.1251H19.0827C18.8667 27.8624 18.6742 27.5764 18.5105 27.2686C18.2673 26.8116 18.4407 26.2438 18.8979 26.0007C19.3552 25.7575 19.9227 25.9309 20.1657 26.3882C20.7356 27.4595 21.8428 28.1251 23.0551 28.1251C24.8584 28.1251 26.3254 26.658 26.3254 24.855V14.5203H26.3252V14.5158C26.3229 12.7147 24.8569 11.2501 23.0551 11.2501C21.624 11.2501 20.3715 12.1652 19.9382 13.5274C19.5922 14.6149 19.8452 15.8224 20.5989 16.6792C20.9408 17.068 20.903 17.6604 20.5141 18.0023C20.3359 18.159 20.1152 18.2359 19.8953 18.2359C19.6351 18.2359 19.3763 18.1283 19.191 17.9176C18.3504 16.9619 17.908 15.729 17.9142 14.4827C17.0255 14.9001 16.3392 15.7077 16.1061 16.7003C16.0489 16.9439 15.8967 17.1545 15.6833 17.2853C15.47 17.416 15.2133 17.4559 14.9702 17.3964C14.7146 17.3338 14.4558 17.3028 14.1987 17.3028C13.4916 17.3028 12.7964 17.5357 12.2147 17.9797C11.4292 18.5795 10.9621 19.4835 10.9291 20.4628C10.9605 21.3866 11.3875 22.2586 12.1043 22.8587C12.5013 23.191 12.5537 23.7824 12.2212 24.1794C12.0359 24.4009 11.7698 24.515 11.502 24.515C11.2896 24.515 11.0761 24.4433 10.9005 24.2964C10.1038 23.6294 9.53578 22.7463 9.25395 21.7711C8.30379 22.3564 7.67871 23.4096 7.67871 24.5594C7.67871 26.5256 9.27152 28.1251 11.2294 28.1251ZM23.0551 46.8751C24.8569 46.8751 26.3228 45.4105 26.3252 43.6094V43.6049H26.3254V33.2702C26.3254 31.4671 24.8583 30.0001 23.0551 30.0001C21.8427 30.0001 20.7356 30.6657 20.1657 31.7371C19.9972 32.0539 19.6727 32.2345 19.3373 32.2345C19.1887 32.2345 19.0382 32.1991 18.8979 32.1245C18.4409 31.8814 18.2673 31.3137 18.5105 30.8566C18.6742 30.5488 18.8667 30.2628 19.0827 30.0001H11.2294C9.27152 30.0001 7.67871 31.5996 7.67871 33.5657C7.67871 34.7155 8.30367 35.7687 9.25395 36.354C9.5359 35.3788 10.1038 34.4958 10.9005 33.8287C11.2977 33.4964 11.8889 33.5488 12.2212 33.9457C12.5537 34.3427 12.5013 34.9341 12.1043 35.2664C11.3875 35.8665 10.9605 36.7385 10.9291 37.6623C10.9621 38.6416 11.4292 39.5456 12.2147 40.1454C13.0079 40.7509 14.0122 40.9633 14.9702 40.7289C15.2132 40.6691 15.4699 40.7093 15.6833 40.84C15.8967 40.9707 16.0489 41.1813 16.1061 41.425C16.3392 42.4175 17.0255 43.2251 17.9142 43.6425C17.908 42.3961 18.3505 41.1633 19.1911 40.2076C19.533 39.8189 20.1254 39.7809 20.5143 40.1229C20.903 40.465 20.9409 41.0573 20.599 41.446C19.8452 42.3027 19.5923 43.5102 19.9383 44.5978C20.3715 45.96 21.624 46.8751 23.0551 46.8751ZM23.0179 35.4613C22.6618 35.0853 22.0682 35.0693 21.6925 35.4252C20.8593 36.2144 19.7013 36.5089 18.5943 36.2119C17.378 35.886 16.4467 34.8744 16.2216 33.6348C16.1291 33.1255 15.6417 32.7867 15.1316 32.88C14.6222 32.9725 14.2842 33.4604 14.3768 33.97C14.7308 35.9195 16.1958 37.5104 18.109 38.0231C18.5557 38.1428 19.0076 38.2014 19.4548 38.2014C20.7511 38.2014 22.0078 37.7093 22.9819 36.7868C23.3577 36.4304 23.3739 35.8371 23.0179 35.4613Z" fill="var(--fill-0, #116190)"/>
</svg>
